<svg xmlns="http://www.w3.org/2000/svg" version="1.1" xmlns:xlink="http://www.w3.org/1999/xlink" xmlns:svgjs="http://svgjs.dev/svgjs" width="1440" height="560" preserveAspectRatio="none" viewBox="0 0 1440 560"><g mask="url(&quot;#SvgjsMask1177&quot;)" fill="none"><rect width="1440" height="560" x="0" y="0" fill="rgba(75, 128, 183, 1)"></rect><path d="M0,525.839C97.242,521.623,185.481,465.658,256.453,399.049C320.186,339.234,331.196,246.63,376.889,172.119C431.103,83.713,542.755,24.452,549.629,-79.025C556.625,-184.329,489.257,-285.094,412.042,-357.036C338.403,-425.646,233.513,-438.131,136.285,-464.144C41.496,-489.504,-53.911,-531.707,-148.902,-507.115C-245.041,-482.225,-315.84,-405.081,-381.076,-330.204C-446.459,-255.157,-526.005,-175.007,-524.961,-75.478C-523.931,22.715,-420.445,84.159,-375.813,171.628C-333.861,253.845,-338.324,358.617,-271.155,421.925C-199.26,489.687,-98.703,530.119,0,525.839" fill="#38618c"></path><path d="M1440 1175.2820000000002C1552.244 1157.306 1634.524 1071.463 1736.7559999999999 1021.761 1856.604 963.495 2025.027 972.893 2092.576 858.021 2159.589 744.06 2107.246 594.513 2060.774 470.746 2020.1979999999999 362.68 1936.123 281.009 1847.949 206.51 1770.603 141.159 1676.648 109.98200000000003 1584.392 68.245 1475.581 19.019000000000005 1376.974-68.47000000000003 1257.815-60.46600000000001 1130.0810000000001-51.88599999999997 998.371 8.633000000000038 923.701 112.62400000000002 850.409 214.69600000000003 880.71 352.908 871.032 478.195 862.056 594.402 834.057 709.575 869 820.767 906.714 940.78 968.274 1061.365 1075.149 1127.72 1181.5 1193.75 1316.393 1195.078 1440 1175.2820000000002" fill="#779fc9"></path></g><defs><mask id="SvgjsMask1177"><rect width="1440" height="560" fill="#ffffff"></rect></mask></defs></svg>